<svg xmlns="http://www.w3.org/2000/svg" xmlns:xlink="http://www.w3.org/1999/xlink" viewBox="0 0 1536 2048">
  
  <g id="collar" class="cls-1">
    <path class="cls-2" d="M995,644c-2.38-29.86-3.11-30.16-5-52-1.69-19.53-4.63-43.37-5-67-.46-29.07-2.84-58.38-11.66-79.78C967,429.78,947.31,422.83,935,413c-17.55-14-30.85-38.31-54-49-17.88-8.25-137.61-3.69-139-4-2.65,0-20.6,10.18-31.33,13.67-11.87,8.42-26.56,26.12-34.19,32.33-22.91,18.67-41.3,32.61-47.48,45-2.67,5.35-7.45,12.63-8,18-2.7,9.57-7.19,41.77-10,64-.08,13.37-2,27.33-2,41-.49,23.08-3.28,69.56,1,81.16,3.25,4,19.92-13.53,32-19.16,20.66-6.67,39.34-12.33,60-19,2,.33,6-2.33,8-2,1,14.23,9.73,20.89,26.29,28,19.24,8.24,44,49.73,53.71,59,2-.33-.16.09,2.12-1.87,3.33-6.81,16.6-19.43,22.53-24.51,2.37-2,7.5-2.52,8.35-3.62,2.22-2.87,10-8.73,20-14,13.42-7.07,29.89-15.9,39.67-22.37,1.49-1,.38-10,9.5-18.61,1.11-1,3.28-.17,5.4-.49C913.22,614.2,926.25,623.3,937,628c7.08,3.09,28,7.18,37.22,10.28C981,642,989,645,995,649,995.33,648,994.85,645.78,995,644Zm-93.85-71c-2.44,3.28-8.74,9.84-11.92,15.22-8.89,15.08-19,26.32-28.59,33.3-6.57,4.79-11.84,7.36-17.64,11.5-3.47,2.47-3.89,7.83-5,11-2.24,6.4-8.73,13.38-15,21-5.26,6.4-13,11.12-24,23-2.29,2.9-8,10.35-8.2,10.68-13.08-19.75-31-39.82-47.28-62.09A64.47,64.47,0,0,0,733.34,626c-7.11-6-12.3-16.23-15.34-21-3.38-5.24-9.8-13.67-11.84-17-7-11.46-11.39-20.18-13.77-24a3.3,3.3,0,0,1-.44-1.3c-3.36-19.21-.24-53.13-1-70.69,2.79-11.53,3-37.1,6-55a44.54,44.54,0,0,0,1-7c14.87-1.64,37.71-1.28,60-2,5.93-.19,9.15-1.6,15-3,9.24-2.21,22.7-1.21,31-2,18.77,1,30.36,4.11,49,5,14,.77,34.46.2,48,0,.26,2.07.5,6.73,1,8,.68,19.84,11.61,40.19,12.1,51.57C915.46,518.73,914.58,554.93,901.15,573Z"/>
  </g>
  <g id="top" class="cls-3">
    <path class="cls-2" d="M462,503c138.43-44.69,121.21-40.72,173.48-62.21C619.89,464.64,618.62,477.08,617,486a31.15,31.15,0,0,1-6,14c-4.43,7.51-13,8.44-21,10a436.25,436.25,0,0,0-71,20c-36,13.85-70.16,30.22-104.07,47.53C410.2,559.84,396.07,545.16,395,537,416.72,526.3,437.92,510.77,462,503Z"/>
    <path class="cls-2" d="M1207,553c-6,14.64-15.5,28-22,44-14.08-7-15.54-6.82-26.14-15.71,1.41-2.63-17.79-15.47-23.84-18.38-33-18.64-80.66-39.31-101-46.91-13-4.85-50.13-16.77-50-19,.24-4.22-4.5-30.37-7-42l-7-16C1049.59,474.73,1137.27,505.8,1207,553Z"/>
    <path class="cls-2" d="M851,429c-3-.51-6.61,0-9-1-13.35-.79-33.48-6.16-52-4-7,.51-22.91,3.81-32.3,4.78-27.12,2.8-49.72,1.39-55.7,2.22a22.11,22.11,0,0,0-4,0c-5,24.8-12.07,118.46-6,133q17.49,28,35,56c6.61,9.4,15.84,13.3,21,25,.89-.44,14.79,15.91,43,54,3.33-4.67,6-9.69,10.17-13.88,13-13.43,28.88-26.23,37.83-42.12,1.9-3.37-.37-5.08,3-8,9.81-8.49,25.56-14.49,36.23-29.68,11-15.63,27.15-34.81,31.77-55.32,3.34-14.82,3.36-31.67,5-44,2.53-19.08-14.28-56.87-13.82-78C883.67,430.07,869.33,428.16,851,429Zm16,162c-7.45,3.86-29.52,1.81-41,2.53-25.61,1.59-58-.44-87-.53-5.36-.11-8-3.83-7-4,.18-20.93-1.56-77.35-1-102,2.38-9.38,32.3-7.39,66-8,29.3-.53,59.47-1.51,70,1C872.66,487.84,871.88,585.18,867,591Z"/>
  </g>
  <g id="sleeveRight" class="cls-4">
    <path class="cls-2" d="M1206,555c1,0,3,4,4,4,16.14,13.76,23,42.35,33,62,31.19,61.14,47,135.44,63,213l6,56c9.88,49.21,11.82,104,22,156,8.46,43.21,3.92,86.76,12,128q4,55,8,110l6,137q-1,21.49-2,43,4,52.5,8,105c-.67,14.33-1.33,28.67-1.79,43,6.42,20.82,4.19,51.33,4.63,77.56-11.64,3.86-21.74,6.49-31.84,7.41-16.74-1.8-72.43,11.13-142,.9-4.94-32.74-2-65.27-7-91.9.19-10.44-2.23-19.08,1-34-2.33-28-3.69-55.47-5-84-4.34-3,.93-45.63-8.19-54.77-5.59-23.48.41-53.63,1.65-77.23,1.26-24-1.74-53.12-5.46-72-1.35-36.66-3.52-73.13-4.73-109.82-1-16.59,2.67-47.12,0-76.18-2.5-26.73-5.5-52-8.45-73.13.36-9.65-4.25-18.06-3.78-32.87.7-37-1.66-52.41,2-60,7.62-15.77,13.15-28.21,5-44-3.93-7.61-1.77-17.83-3-30-1.69-16.64-4.19-78.81-3.54-91.49.53-10.49,2-51.76,2.54-61.51.45-8.82,1.18-14.55,2-23,2-10.67,3.92-20.35,6-31-.54-.79,3-11.26,4-17C1171.33,617.67,1196.42,572.46,1206,555Z"/>
  </g>
  <g id="sleeveLeft" class="cls-5">
    <path class="cls-2" d="M397,1471c.32,19.59-3.6,54.89-10,76,0,8,.42,11.81,0,22-2.68,18.47-2.52,40.89-2,51,1.95,6.54,2.27,16.2.42,21.07,1.06,9.31,0,42.76-2.42,43.93-7.83,11.3-19.11,8.74-36.77,9.43-15.32.59-31.73.47-42.23.57-20.07.19-40.28-1.6-60-4-9.18-1.12-16.46-3.85-25-7-7.76-42.29-.14-86.82-1-131-1.16-59.33-4.69-128.79,6-185q1-32,2-64,7-90,14-180v-52c36.69-189.84,44-415.22,155-532,1.33,0,3.17,3.86,4,5,14.92,22.1,26,53.44,33,86,1.44,6.72,2.49,17.29,3,23,1.33,14.67.67,27.33,2,42-.29,29.62-3.58,58-4,90-2.35,26.32-7,73.89-14,93-5.94,16.17-19.68,29.4-25,45-5.91,17.34,5,29.92,2,46-1.74,9.35-5,29.27-4,40,1.4,14.75,4.4,42.68,3,61,1.67,17.31-1.24,28.36,1,43-.46,13,0,25.73-1,34,1.33,18.66-1.18,28.3-1,46,1.67,23.92-1.5,55.83-2,72-.49,15.61-.41,35.86,0,46,1,25.13-.74,44.42-2,62C390.82,1434.92,389.23,1421.91,397,1471Z"/>
  </g>
  <g id="rightSide" class="cls-5">
    <path class="cls-2" d="M1182.15,1543.05c-4-43.64-6.87-32.84-4.15-71-1.61-12.45-2-21-2-39-1.33-8.67-.67-16.33-2-25-.21-21.68,5.57-51.53,4-80-1.86-33.74-7.92-73.9-7.77-107-2.46-12.78-.13-10.57-2.23-22,1.22-3.83-.15-25.51-1-41,2-10.63,3.11-36.77,0-58-1.57-34.11-7.21-69-12-105-1.32-19.51,3.17-36.83,1-62,3.89-5.13,6.76-12.24,7-15,6.49-14.52.84-27.68-1.18-29.12-.26-5.62-1.75-11.87-1.82-17.88.21-6.49,0-7.84-1-12,.67-18-2.67-31-2-49-1.82-6.09-.27-11.68-1-21-15.41.07-32.81,3.23-44,4-32.66-.67-65.42-2.6-96-1-52.83,0-113.5.44-160-1-21.33.67-42.29,1-64,0-8-3-15.14-4-22-6-3.33,22.7-8.49,40.21-11,63-3.56,94.78-2.36,189.36-3,283,1.33,87,2.67,175,4,262-4.49,53.91-1.21,108.41,1,159,.13,2.91-.39,4.54,0,11,1.1,18.15,1.25,42.25,2,63,16.37,7.71,77.52,2.91,112.42,5.37,18.85,1.34,36.42-.81,64.66-1.18,18-.24,109.48,3.84,147.89-5.22,15,.57,29.87-.84,52-1,12.89-2.07,28.51-5.76,43-9C1182.46,1605,1180.91,1561.73,1182.15,1543.05ZM788,832h8c6.24,4.21,8.12,8.22,12,14-3.4,5.08-3.75,11.57-10,13-6.58,2.83-13-.18-16-3-2.74-2.09-5.93-5.61-6-13C779.68,837.24,780.92,834.88,788,832Zm-.17,187.94c6.22-.05,10.2.38,13.17,3.06,3.83,3.63,5.33,5.39,7,13-5.17,11.59-5.53,14.18-22,14-3.71-3.29-5.78-3-9-9C772.18,1030,780.58,1023.36,787.83,1019.94Zm-4,189.08c16.58.28,14.8,6.88,20.48,16.34-5.5,10.73-8,17.19-24.3,13.64-6.37-4.12-6.63-5.38-8-17C775.15,1216.18,775.93,1212.81,783.82,1209ZM776,1415c3.49-6.77,5.9-10,12-13,4.67,0,8.84.08,11.58,1.63,5.67,3.88,5.08,5.24,6.42,9.37a26.55,26.55,0,0,1-1,11c-5.21,5.19-10.62,11.61-22,7-4.24-1.69-4.11-2.91-6-7C776.19,1421.34,775.52,1417.68,776,1415Zm29,188c-2.78,3.35-5.08,5.24-10,6-9.77-.41-12.06-4.94-17-11-.36-2.63-.67-6.33-1-9,4.94-5.94,5.91-9.06,15-12C802.53,1579,814.26,1590.81,805,1603Zm297-661v116c-2.93,22.22,2.19,60.09-3,63-11.14,6.24-33.7,13.27-47,18-19.33,6.33-42.67,12.67-62,19-21.83-5.55-99.28-33.82-114-41-5.43-48.81,3.25-113.87-2-163H862a207,207,0,0,0-1-29c.67-1.33.33-4.67,1-6,3.33-.33,7.67.33,11,0-.1-9.53.67-20.33,0-31,.2-1.86.67-7.33,2-9,9.78,2.39,20.25-.6,37,1,23.14,2.21,83.81,6.45,121.65,5.19,22.09-.73,56.65-5.25,68.35-1.19C1104.36,904,1102,922.57,1102,942Z"/>
  </g>
  <g id="leftSideTop" class="cls-5">
    <path class="cls-2" d="M790,702c-4.33,14.38-14.12,31.06-14.79,47.22-2.54,15.44-4.88,30.11-7.21,46.78-17.33-1.33-35.91-.09-54-2-30.37.55-77.25.23-105-2-22.62-1.82-55.32-1.29-67-2-40.73-2.47-89.37-.77-109.21-5.37.39,2,1.54-4,.13-4.82,1.35-52.21,7.44-98.26-.92-145.81a84.69,84.69,0,0,0-3-19c-3.55-11.62-6.45-18.38-10-30-.12-.38-3-6.51-3.28-7.37C457.56,553.32,527.53,524.73,547,521c7.76-1.49,37.22-9.19,50-12,6.85-1.5,11.38-1.89,12.42-7.39,3.91-5.28,5.25-5.94,6.58-5.61-4,35.07-10.16,76.94-7.8,115.26,1,16.24-2.93,39.43,2.8,44.74,4.66.15,22.46-17.83,42-24,20.54-6.49,46.23-14.39,57-17.75.27,12.1,11.23,21.92,12,22.75.49.56-6.48,3.69,6,13,4.63,3.45,11.81,10.35,16,7,1.9-1.52-2.44-11.15-2.11-10.88,16.78,14,29.87,32.11,43.11,49.88C786.57,697.18,788.33,702,790,702Z"/>
  </g>
  <g id="rightSideTop" class="cls-6">
    <path class="cls-2" d="M770,784c3.93-44.5,8.77-68,30-96,1.93-2.55,19.64-17.49,20.13-15.55S831.91,663.58,834,663l47-26c2.6-2.68,3.94-6.89,5-12,.87-4.23,2.65-4.47,4-8.08,8-2.24,17.82-1.87,27,1.08,8.38,2.68,15.08,8,23,11,8.94,3.39,19.76,4.77,26,6,7,1.38,13,5,29,13-3.06-44.9-10.81-86.1-10.9-149,1.9-.37,12.9,5.29,14.9,5,25.66,9.33,44.8,15.23,69,27,26.88,11.38,46.77,22.39,70,34,0-.38,20.78,12.54,20,15-1.93,3.22,21.51,16,26,16-12.1,25.44-18.39,52.32-23,85-1.28,15.82-4.67,31.67-4,47-1.81,18.52-1,39.67-2,61-25.82,1.34-48.12,5.66-68.71,4.18-13-.93-30-2.88-45.29-2.18-30.69,1.41-64.42,1-94,1-49.33-.67-96.67.67-146,0C788.4,791.08,778.18,787.08,770,784Z"/>
  </g>
  <g id="leftSide" class="cls-7">
    <path class="cls-2" d="M405,1614c-3.05.24-2.8-33.17-1-70,.81-16.61,3.23-33.44,4-49,.64-13.5-11.43-57.78-11.29-71.64.14-14.72-1.93-29.22.31-45.35,1.74-12.54-3.64-33.33-4-48-.57-23.32-.9-46.53.27-68.4,2.2-41,.08-77,2.73-117.6.36-23.67-.34-42.71,0-67-.67-22-3.33-48-4-70-1.32-13.57,4.46-31.92,3.62-44.85-.69-10.67-5.28-20.41-3.62-34.15.66-4.77.38-6.51,5-12,8.67-13.67,16.42-20.75,21.4-36.29,9-23.78,11.93-58.87,15.6-93.71,29,2.5,28.71,3,97.93,3.56,13.32.1,38.91,1.45,64.06,2.16,15.06.42,32.23,2.68,46.81,2.9,36.14.54,85.5,0,114.2,1.38.72-.49,10.56-.16,11,1-11.67,35.09-11,126.84-12,149v145q1,112,2,224c1.82,24.16,3.36,61.38.85,85.74-4.16,40.24,6.24,204.18,3.07,225.47-4.69,9-222.78,3.45-243.92,1.79C486.55,1625.53,440.16,1620.49,405,1614Z"/>
  </g>
  <g id="pocket" class="cls-8">
    <path class="cls-2" d="M962,883c38.6,3,102.46-.59,139.91-1.47,4.16,30.2-.6,72.54.09,103.47.2,8.93.33,140-1.93,137.17-37.24,11.45-102.6,38.62-113.07,34.83-13.56-4.92-103.53-34.45-112-39,0-50.66-1-106.34-1-157,1.4-13.75.76-61-1-80C874.16,877.32,874.34,876.08,962,883Z"/>
  </g>
  <g id="shadow">
    <image id="image" width="1536" height="2048" xlink:href="jacket-config1.png"/>
  </g>
</svg>
